<svg id="Layer_1" enable-background="new 0 0 256 256" height="512" viewBox="0 0 256 256" width="512" xmlns="http://www.w3.org/2000/svg"><path d="m239.266 225.465h-222.782v-143.478c0-4.61 3.737-8.348 8.348-8.348h206.087c4.61 0 8.348 3.737 8.348 8.348v143.478z" fill="#e0ebfc"/><path d="m29.005 208.77v-118.435c0-2.305 1.869-4.174 4.174-4.174h189.391c2.305 0 4.174 1.869 4.174 4.174v118.435c0 2.305-1.869 4.174-4.174 4.174h-189.391c-2.305 0-4.174-1.869-4.174-4.174z" fill="#6bdddd"/><path d="m237.785 248.418h-219.57c-5.642 0-10.215-4.573-10.215-10.215v-8.568c0-2.305 1.869-4.174 4.174-4.174h231.652c2.305 0 4.174 1.869 4.174 4.174v8.568c0 5.642-4.573 10.215-10.215 10.215z" fill="#e0ebfc"/><path d="m108.921 225.461h38.161v7.225c0 2.209-1.791 4-4 4h-30.161c-2.209 0-4-1.791-4-4z" fill="#a4c9ff"/><g fill="#3762cc"><path d="m239.267 227.465h-222.783c-1.104 0-2-.896-2-2v-143.478c0-5.706 4.642-10.348 10.348-10.348h206.087c5.706 0 10.348 4.642 10.348 10.348v143.478c0 1.104-.896 2-2 2zm-220.783-4h218.783v-141.478c0-3.5-2.848-6.348-6.348-6.348h-206.087c-3.5 0-6.348 2.848-6.348 6.348z"/><path d="m222.57 214.943h-189.391c-3.404 0-6.174-2.77-6.174-6.174v-118.434c0-3.404 2.77-6.174 6.174-6.174h189.391c3.404 0 6.174 2.77 6.174 6.174v118.435c0 3.404-2.769 6.173-6.174 6.173zm-189.391-126.782c-1.199 0-2.174.976-2.174 2.174v118.435c0 1.198.975 2.174 2.174 2.174h189.391c1.198 0 2.174-.976 2.174-2.174v-118.435c0-1.198-.976-2.174-2.174-2.174z"/><path d="m237.785 250.418h-219.57c-6.736 0-12.215-5.48-12.215-12.215v-8.567c0-3.404 2.77-6.174 6.174-6.174h231.652c3.404 0 6.174 2.77 6.174 6.174v8.567c0 6.735-5.479 12.215-12.215 12.215zm-225.611-22.956c-1.199 0-2.174.976-2.174 2.174v8.567c0 4.529 3.685 8.215 8.215 8.215h219.57c4.529 0 8.215-3.686 8.215-8.215v-8.567c0-1.198-.976-2.174-2.174-2.174z"/><path d="m143.082 238.686h-30.161c-3.309 0-6-2.691-6-6v-7.225c0-1.104.896-2 2-2h38.161c1.104 0 2 .896 2 2v7.225c0 3.308-2.691 6-6 6zm-32.161-11.225v5.225c0 1.103.897 2 2 2h30.161c1.103 0 2-.897 2-2v-5.225z"/></g><circle cx="127.875" cy="80.081" fill="#a4c9ff" r="34.93"/><circle cx="127.875" cy="79.792" fill="#f9cfcf" r="26.305"/><circle cx="127.875" cy="79.792" fill="#4671c6" r="20.085"/><path d="m127.875 91.73c-6.583 0-11.939-5.355-11.939-11.938s5.356-11.939 11.939-11.939 11.938 5.356 11.938 11.939-5.355 11.938-11.938 11.938zm0-19.877c-4.377 0-7.939 3.562-7.939 7.939s3.562 7.938 7.939 7.938 7.938-3.562 7.938-7.938c0-4.378-3.561-7.939-7.938-7.939z" fill="#3762cc"/><circle cx="134.469" cy="69.358" fill="#e0ebfc" r="5.7"/><path d="m127.875 117.012c-20.363 0-36.93-16.567-36.93-36.931s16.567-36.931 36.93-36.931 36.931 16.567 36.931 36.931-16.568 36.931-36.931 36.931zm0-69.862c-18.158 0-32.93 14.772-32.93 32.931s14.772 32.931 32.93 32.931 32.931-14.772 32.931-32.931-14.773-32.931-32.931-32.931z" fill="#3762cc"/><path d="m127.875 101.877c-12.178 0-22.085-9.907-22.085-22.085 0-12.179 9.908-22.086 22.085-22.086s22.085 9.907 22.085 22.086c0 12.178-9.907 22.085-22.085 22.085zm0-40.171c-9.972 0-18.085 8.113-18.085 18.086 0 9.972 8.113 18.085 18.085 18.085s18.085-8.113 18.085-18.085c0-9.973-8.113-18.086-18.085-18.086z" fill="#3762cc"/><path d="m136.148 35.065c-2.429-2.132-5.476-3.306-8.639-3.305-3.125.015-6.182 1.217-8.608 3.386-.756.676-1.174 1.679-1.148 2.751.026 1.082.498 2.072 1.293 2.717.551.447 1.207.683 1.896.683.741 0 1.469-.282 2.05-.795 1.305-1.151 2.878-1.764 4.58-1.772 1.658 0 3.225.598 4.533 1.729.578.5 1.299.776 2.03.776.699 0 1.362-.242 1.917-.701.79-.652 1.252-1.647 1.268-2.729.018-1.072-.41-2.071-1.172-2.74z" fill="#f9cfcf"/><path d="m145.335 27.995c-4.711-5.368-11.024-8.324-17.775-8.324h-.107c-6.792.032-13.115 3.047-17.803 8.491-.63.731-.94 1.724-.851 2.724.087.977.552 1.873 1.277 2.46.552.447 1.207.684 1.895.684.889 0 1.752-.409 2.368-1.121 3.471-4.018 8.14-6.243 13.147-6.267h.079c4.976 0 9.638 2.182 13.127 6.143.615.698 1.472 1.099 2.35 1.099.698 0 1.36-.243 1.918-.703.717-.592 1.174-1.493 1.252-2.47.079-1.001-.24-1.991-.877-2.716z" fill="#f9cfcf"/><path d="m154.243 20.845c-6.786-8.429-16.515-13.263-26.692-13.263h-.155c-10.237.048-19.976 4.974-26.722 13.514-1.21 1.532-.969 3.849.528 5.062.557.451 1.218.69 1.911.69.929 0 1.807-.438 2.409-1.201 5.535-7.011 13.52-11.055 21.906-11.094h.126c8.338 0 16.313 3.969 21.882 10.888.603.749 1.475 1.178 2.393 1.178.704 0 1.372-.245 1.936-.71 1.483-1.225 1.702-3.544.478-5.064z" fill="#f9a7a7"/><ellipse cx="127.537" cy="48.488" fill="#f9a7a7" rx="3.873" ry="3.886"/><path d="m152.037 203.475h-48.324v-9.848c0-11.519 9.338-20.857 20.857-20.857h6.61c11.519 0 20.857 9.338 20.857 20.857z" fill="#f9a7a7"/><path d="m152.037 205.476h-48.324c-1.104 0-2-.896-2-2v-9.849c0-12.604 10.254-22.857 22.857-22.857h6.609c12.604 0 22.857 10.254 22.857 22.857v9.849c.001 1.104-.894 2-1.999 2zm-46.324-4h44.324v-7.849c0-10.398-8.459-18.857-18.857-18.857h-6.609c-10.398 0-18.857 8.459-18.857 18.857v7.849z" fill="#3762cc"/><circle cx="127.875" cy="148.608" fill="#f9cfcf" r="24.162"/><path d="m127.875 174.77c-14.426 0-26.162-11.736-26.162-26.162s11.736-26.162 26.162-26.162 26.162 11.736 26.162 26.162-11.736 26.162-26.162 26.162zm0-48.325c-12.22 0-22.162 9.941-22.162 22.162s9.942 22.162 22.162 22.162c12.221 0 22.162-9.941 22.162-22.162s-9.941-22.162-22.162-22.162z" fill="#3762cc"/></svg>